<svg width="120" height="30" viewBox="0 0 120 30" fill="none" xmlns="http://www.w3.org/2000/svg">
<g clip-path="url(#clip0_5286_10236)">
<path d="M34.0225 17.2622C34.0207 17.3665 33.9777 17.4659 33.9027 17.5386C33.8277 17.6113 33.727 17.6514 33.6225 17.6503H26.2558C26.4447 19.4684 27.8114 21.1314 29.7447 21.1314C31.0669 21.1314 32.0447 20.6325 32.778 19.5793C32.8122 19.524 32.8594 19.4778 32.9156 19.445C32.9718 19.4121 33.0352 19.3935 33.1002 19.3908C33.1488 19.3895 33.1971 19.398 33.2422 19.4159C33.2873 19.4338 33.3283 19.4607 33.3626 19.4949C33.3969 19.5292 33.4239 19.5701 33.4418 19.6151C33.4598 19.6601 33.4683 19.7083 33.4669 19.7567C33.4672 19.8236 33.4479 19.8891 33.4114 19.9452C32.6669 21.2312 31.1891 21.8631 29.7447 21.8631C27.2669 21.8631 25.4891 19.6458 25.4891 17.2844C25.4891 14.923 27.2558 12.7057 29.7447 12.7057C32.2336 12.7057 34.0114 14.9008 34.0225 17.2622ZM33.2336 16.9186C33.078 15.1004 31.678 13.4374 29.7447 13.4374C27.8114 13.4374 26.4447 15.1004 26.2558 16.9186H33.2336Z" fill="white"/>
<path d="M42.9779 12.883C43.0743 12.8858 43.1659 12.9253 43.2341 12.9933C43.3023 13.0613 43.3418 13.1527 43.3446 13.2489C43.346 13.2973 43.3374 13.3455 43.3195 13.3905C43.3016 13.4355 43.2746 13.4764 43.2403 13.5106C43.2059 13.5449 43.165 13.5718 43.1199 13.5897C43.0747 13.6076 43.0264 13.6161 42.9779 13.6147H41.0001V21.3642C40.9993 21.4609 40.9604 21.5535 40.8918 21.6219C40.8232 21.6903 40.7305 21.7292 40.6335 21.73C40.5371 21.7272 40.4455 21.6878 40.3773 21.6198C40.3091 21.5518 40.2696 21.4603 40.2668 21.3642V13.6147H38.3668C38.3183 13.6161 38.27 13.6076 38.2249 13.5897C38.1798 13.5718 38.1388 13.5449 38.1045 13.5106C38.0701 13.4764 38.0432 13.4355 38.0252 13.3905C38.0073 13.3455 37.9988 13.2973 38.0001 13.2489C38.001 13.1521 38.0399 13.0596 38.1085 12.9911C38.1771 12.9227 38.2698 12.8839 38.3668 12.883H40.2668V10.056C40.267 9.9623 40.3007 9.87176 40.3618 9.80064C40.4229 9.72951 40.5074 9.68246 40.6001 9.66795C40.652 9.66108 40.7047 9.66546 40.7547 9.68079C40.8047 9.69612 40.8508 9.72204 40.8898 9.75677C40.9289 9.79151 40.9599 9.83424 40.9809 9.88205C41.0018 9.92986 41.0122 9.98163 41.0113 10.0338V12.883H42.9779Z" fill="white"/>
<path d="M55.0333 16.6294V21.319C55.0305 21.4152 54.991 21.5066 54.9228 21.5746C54.8547 21.6426 54.763 21.6821 54.6666 21.6849C54.6181 21.6863 54.5698 21.6777 54.5247 21.6598C54.4796 21.6419 54.4386 21.615 54.4043 21.5808C54.37 21.5465 54.343 21.5057 54.3251 21.4606C54.3071 21.4156 54.2986 21.3674 54.3 21.319V16.6294C54.3 15.0441 53.4 13.4698 51.6333 13.4698C49.3667 13.4698 48.3889 15.4432 48.5222 17.472C48.5222 17.5274 48.5444 17.7603 48.5444 17.7935V21.3079C48.5442 21.4016 48.5106 21.4922 48.4495 21.5633C48.3884 21.6344 48.3038 21.6814 48.2111 21.696C48.1592 21.7028 48.1065 21.6985 48.0565 21.6831C48.0065 21.6678 47.9604 21.6419 47.9214 21.6071C47.8824 21.5724 47.8513 21.5297 47.8304 21.4819C47.8094 21.4341 47.799 21.3823 47.8 21.3301V5.90882C47.8009 5.81206 47.8398 5.71951 47.9083 5.65108C47.9769 5.58266 48.0697 5.54384 48.1667 5.54297C48.263 5.54576 48.3547 5.5852 48.4228 5.65321C48.491 5.72123 48.5305 5.81267 48.5333 5.90882V14.6228C49.1666 13.492 50.3 12.727 51.6222 12.727C53.8 12.727 55.0333 14.6228 55.0333 16.6294Z" fill="white"/>
<path d="M68.267 17.2622C68.2652 17.3665 68.2222 17.4659 68.1472 17.5386C68.0723 17.6113 67.9715 17.6514 67.867 17.6503H60.5003C60.6892 19.4684 62.0559 21.1314 63.9892 21.1314C65.3114 21.1314 66.2892 20.6325 67.0225 19.5793C67.0567 19.524 67.1039 19.4778 67.1601 19.445C67.2163 19.4121 67.2797 19.3935 67.3448 19.3908C67.3933 19.3895 67.4416 19.398 67.4867 19.4159C67.5318 19.4338 67.5728 19.4607 67.6071 19.4949C67.6414 19.5292 67.6684 19.5701 67.6863 19.6151C67.7043 19.6601 67.7128 19.7083 67.7114 19.7567C67.7117 19.8236 67.6924 19.8891 67.6559 19.9452C66.9114 21.2312 65.4336 21.8631 63.9892 21.8631C61.5114 21.8631 59.7336 19.6458 59.7336 17.2844C59.7336 14.923 61.5003 12.7057 63.9892 12.7057C66.4559 12.7057 68.2559 14.9008 68.267 17.2622ZM67.467 16.9186C67.3114 15.1004 65.9114 13.4374 63.9781 13.4374C62.0448 13.4374 60.6781 15.1004 60.4892 16.9186H67.467Z" fill="white"/>
<path d="M77.3224 13.2262C77.3294 13.3247 77.2972 13.4219 77.2326 13.4967C77.1681 13.5714 77.0765 13.6177 76.9779 13.6254C74.8113 13.9469 73.8335 15.7096 73.8335 17.7606V21.275C73.8333 21.3687 73.7996 21.4592 73.7385 21.5304C73.6774 21.6015 73.5929 21.6485 73.5002 21.6631C73.4483 21.6699 73.3956 21.6655 73.3456 21.6502C73.2956 21.6349 73.2495 21.609 73.2105 21.5742C73.1715 21.5395 73.1404 21.4968 73.1194 21.449C73.0985 21.4011 73.0881 21.3494 73.089 21.2972V13.2817C73.0892 13.188 73.1229 13.0975 73.184 13.0263C73.2451 12.9552 73.3296 12.9082 73.4224 12.8937C73.4742 12.8868 73.5269 12.8912 73.5769 12.9065C73.6269 12.9218 73.673 12.9477 73.7121 12.9825C73.7511 13.0172 73.7821 13.0599 73.8031 13.1078C73.8241 13.1556 73.8344 13.2073 73.8335 13.2595V14.8892C74.4446 13.8582 75.6557 12.8826 76.9224 12.8826C77.1113 12.8826 77.3224 13.0156 77.3224 13.2262Z" fill="white"/>
<path d="M89.4335 17.2622C89.4317 17.3665 89.3887 17.4659 89.3137 17.5386C89.2388 17.6113 89.138 17.6514 89.0335 17.6503H81.6668C81.8557 19.4684 83.2224 21.1314 85.1557 21.1314C86.4779 21.1314 87.4557 20.6325 88.189 19.5793C88.2232 19.524 88.2704 19.4778 88.3266 19.445C88.3828 19.4121 88.4462 19.3935 88.5113 19.3908C88.5598 19.3895 88.6081 19.398 88.6532 19.4159C88.6983 19.4338 88.7393 19.4607 88.7736 19.4949C88.8079 19.5292 88.8349 19.5701 88.8528 19.6151C88.8708 19.6601 88.8793 19.7083 88.8779 19.7567C88.8782 19.8236 88.8589 19.8891 88.8224 19.9452C88.0779 21.2312 86.6002 21.8631 85.1557 21.8631C82.6779 21.8631 80.9001 19.6458 80.9001 17.2844C80.9001 14.923 82.6668 12.7057 85.1557 12.7057C87.6446 12.7057 89.4224 14.9008 89.4335 17.2622ZM88.6446 16.9186C88.489 15.1004 87.089 13.4374 85.1557 13.4374C83.2224 13.4374 81.8557 15.1004 81.6668 16.9186H88.6446Z" fill="white"/>
<path d="M101.344 13.3147V21.3635C101.342 21.4596 101.302 21.5511 101.234 21.6191C101.166 21.6871 101.074 21.7266 100.978 21.7293C100.929 21.7307 100.881 21.7222 100.836 21.7043C100.791 21.6864 100.75 21.6595 100.715 21.6252C100.681 21.591 100.654 21.5501 100.636 21.5051C100.618 21.4601 100.61 21.4119 100.611 21.3635V19.8336C100 21.042 98.9223 21.9178 97.5445 21.9178C95.3556 21.9178 94.1445 20.022 94.1445 18.0154V13.3036C94.1453 13.2069 94.1843 13.1143 94.2528 13.0459C94.3214 12.9775 94.4142 12.9386 94.5111 12.9378C94.6075 12.9406 94.6991 12.98 94.7673 13.048C94.8355 13.116 94.875 13.2075 94.8778 13.3036V18.0154C94.8778 19.6007 95.7778 21.175 97.5445 21.175C100.022 21.175 100.611 18.8579 100.611 16.297V13.2925C100.612 13.2332 100.627 13.175 100.655 13.1227C100.683 13.0703 100.723 13.0255 100.772 12.9918C100.821 12.9582 100.877 12.9367 100.936 12.9292C100.995 12.9218 101.055 12.9285 101.111 12.9489C101.181 12.9812 101.24 13.0329 101.281 13.0977C101.323 13.1626 101.345 13.2379 101.344 13.3147Z" fill="white"/>
<path d="M120 16.5968V21.3086C119.997 21.4047 119.958 21.4962 119.889 21.5642C119.821 21.6322 119.73 21.6717 119.633 21.6744C119.585 21.6758 119.536 21.6673 119.491 21.6494C119.446 21.6315 119.405 21.6046 119.371 21.5704C119.337 21.5361 119.31 21.4952 119.292 21.4502C119.274 21.4052 119.265 21.357 119.267 21.3086V16.5968C119.267 15.0115 118.367 13.4594 116.6 13.4594C114.378 13.4594 113.533 15.8319 113.533 17.6722V21.3086C113.53 21.4047 113.491 21.4962 113.423 21.5642C113.355 21.6322 113.263 21.6717 113.167 21.6744C113.118 21.6758 113.07 21.6673 113.025 21.6494C112.979 21.6315 112.939 21.6046 112.904 21.5704C112.87 21.5361 112.843 21.4952 112.825 21.4502C112.807 21.4052 112.798 21.357 112.8 21.3086V16.5968C112.8 15.0115 111.9 13.4594 110.133 13.4594C107.889 13.4594 106.967 15.2221 107.044 17.5724C107.044 17.6279 107.067 17.7277 107.044 17.7609V21.2975C107.044 21.3912 107.01 21.4817 106.949 21.5528C106.888 21.624 106.804 21.671 106.711 21.6855C106.659 21.6924 106.606 21.688 106.556 21.6727C106.506 21.6574 106.46 21.6314 106.421 21.5967C106.382 21.562 106.351 21.5192 106.33 21.4714C106.309 21.4236 106.299 21.3719 106.3 21.3197V13.282C106.3 13.1883 106.334 13.0978 106.395 13.0266C106.456 12.9555 106.54 12.9085 106.633 12.894C106.685 12.8871 106.738 12.8915 106.788 12.9068C106.838 12.9221 106.884 12.948 106.923 12.9828C106.962 13.0175 106.993 13.0602 107.014 13.1081C107.035 13.1559 107.045 13.2076 107.044 13.2598V14.6013C107.678 13.4705 108.811 12.7277 110.133 12.7277C111.633 12.7277 112.8 13.6811 113.278 15.0669C113.889 13.6922 115.078 12.7277 116.6 12.7277C118.767 12.7277 120 14.6013 120 16.5968Z" fill="white"/>
<path opacity="0.6" d="M9.22223 11.0977L0 15.2773L9.22223 20.7207L18.4556 15.2773L9.22223 11.0977Z" fill="white"/>
<path opacity="0.45" d="M0 15.2772L9.22222 20.7206V0L0 15.2772Z" fill="white"/>
<path opacity="0.8" d="M9.22211 0V20.7206L18.4554 15.2772L9.22211 0Z" fill="white"/>
<path opacity="0.45" d="M0 17.0288L9.22222 30V22.4612L0 17.0288Z" fill="white"/>
<path opacity="0.8" d="M9.22211 22.4612V30L18.4554 17.0288L9.22211 22.4612Z" fill="white"/>
</g>
<defs>
<clipPath id="clip0_5286_10236">
<rect width="120" height="30" fill="white"/>
</clipPath>
</defs>
</svg>

