<svg width="100" height="28" viewBox="0 0 100 28" fill="none" xmlns="http://www.w3.org/2000/svg">
<path d="M24.9863 23.2584C21.9136 21.8502 20.0031 19.515 19.3704 16.2577C18.3013 10.7545 22.3375 5.56934 27.9561 5.06705C32.2166 4.68619 35.8727 7.25233 37.4134 10.6366C36.8782 10.9779 36.3399 11.3211 35.7694 11.6848C34.7405 9.6558 33.2371 8.16683 31.0868 7.43571C29.6363 6.94254 28.1583 6.91327 26.6768 7.37714C23.5382 8.35983 21.3095 11.2266 21.2427 14.395C21.1745 17.6299 23.2675 20.5314 26.4987 21.649C29.137 22.5614 33.1488 21.8437 35.44 18.1664C35.9076 18.6372 36.3712 19.1039 36.8337 19.5695C34.7034 23.1994 29.7904 25.229 24.9863 23.2584Z" fill="#FCFCFC"/>
<path d="M92.8496 14.0073C92.8496 17.3396 92.8496 20.615 92.8496 23.9103C92.132 23.9103 91.4555 23.9103 90.722 23.9103C90.722 18.2768 90.722 12.6647 90.722 7.00962C88.3275 7.00962 85.9897 7.00962 83.6134 7.00962C83.6134 6.37165 83.6134 5.77624 83.6134 5.15405C89.0718 5.15405 94.5216 5.15405 100 5.15405C100 5.75787 100 6.35532 100 6.9918C97.6363 6.9918 95.2764 6.9918 92.8496 6.9918C92.8496 9.33668 92.8496 11.6435 92.8496 14.0073Z" fill="#FAFAFA"/>
<path d="M49.4104 26.6892C49.3388 27.1298 49.28 27.5224 49.2142 27.9608C48.5992 27.9608 47.9876 27.9608 47.3239 27.9608C48.8515 18.6502 50.3761 9.35839 51.9052 0.0390625C52.5323 0.0390625 53.1308 0.0390625 53.7959 0.0390625C52.3356 8.92288 50.8794 17.782 49.4104 26.6892Z" fill="#2D73B3"/>
<path d="M2.6287 5.61691C3.3391 5.43864 4.01263 5.15693 4.68926 5.14927C8.51863 5.10597 12.3487 5.12833 16.2194 5.12833C16.2194 5.73532 16.2194 6.33086 16.2194 6.97267C16.0946 6.9815 15.9518 7.00035 15.809 7.00043C12.5282 7.00207 9.24734 6.99754 5.96653 7.00627C5.49595 7.00752 5.01386 7.01677 4.55718 7.11536C2.98599 7.45454 2.0706 8.80674 2.17844 10.5531C2.27356 12.0935 2.93003 13.1912 4.55666 13.5318C4.55666 14.1898 4.55666 14.8222 4.55666 15.4527C2.82767 15.5726 0.850295 13.9822 0.247875 11.9841C-0.465742 9.61725 0.371642 6.78693 2.6287 5.61691Z" fill="#FDFDFD"/>
<path d="M79.1884 5.12845C79.4325 5.12845 79.6209 5.12845 79.849 5.12845C79.849 5.73745 79.849 6.33273 79.849 6.97354C79.7225 6.98221 79.5795 7.00051 79.4364 7.00058C76.1573 7.00218 72.8782 6.99773 69.5991 7.00632C69.1286 7.00755 68.6469 7.01609 68.1901 7.11379C66.6211 7.44944 65.7038 8.80203 65.806 10.5464C65.8979 12.1142 66.5857 13.2086 68.1907 13.5414C68.1907 14.2112 68.1907 14.831 68.1907 15.4881C66.8182 15.4679 65.7621 14.8398 64.9334 13.858C63.223 11.8317 63.1684 8.93299 64.7876 6.84097C65.6428 5.73604 66.7969 5.13426 68.2149 5.13113C71.8541 5.12311 75.4934 5.12845 79.1884 5.12845Z" fill="#FDFDFD"/>
<path d="M3.38922 22.0304C5.9622 22.0333 8.47826 22.0342 10.9943 22.0309C13.7873 22.0272 15.3328 19.3388 13.9608 16.8777C13.531 16.1067 12.8272 15.7446 11.9835 15.5562C11.9835 14.9097 11.9835 14.2719 11.9835 13.5906C12.9899 13.536 13.8104 13.9414 14.544 14.5132C17.1837 16.5705 17.2585 20.7555 14.6993 22.921C13.9271 23.5743 13.0288 23.9288 11.996 23.9273C8.28368 23.922 4.57132 23.9284 0.858964 23.9303C0.693109 23.9304 0.527253 23.9303 0.334412 23.9303C0.334412 23.291 0.334412 22.6912 0.334412 22.0265C1.33542 22.0265 2.33387 22.0265 3.38922 22.0304Z" fill="#FBFBFB"/>
<path d="M77.0242 23.6829C76.5167 23.7697 76.0537 23.9116 75.59 23.9141C71.876 23.9346 68.1619 23.9286 64.4479 23.9308C64.299 23.9309 64.1502 23.9308 63.9686 23.9308C63.9686 23.3048 63.9686 22.7059 63.9686 22.0315C64.1613 22.0315 64.3613 22.0315 64.5614 22.0315C67.9115 22.0316 71.2616 22.0338 74.6117 22.0314C77.3695 22.0294 78.9087 19.4643 77.6473 16.9845C77.2257 16.1555 76.5082 15.7533 75.6148 15.5581C75.6148 14.9137 75.6148 14.2764 75.6148 13.6431C76.9532 13.3744 79.2433 14.7949 79.9443 17.0857C80.7055 19.5737 79.705 22.6212 77.0242 23.6829Z" fill="#FBFBFB"/>
<path d="M57.8215 17.4411C56.8449 18.1475 55.9012 18.8298 54.8573 19.5845C54.8573 18.6625 54.8413 17.8581 54.8724 17.0555C54.8778 16.915 55.0568 16.7471 55.1965 16.6513C56.4094 15.8195 57.6317 15.0012 58.9196 14.1329C57.7029 13.3092 56.5443 12.5052 55.3627 11.7365C54.993 11.496 54.8129 11.244 54.8452 10.7827C54.891 10.1291 54.8568 9.46989 54.8568 8.68896C57.3969 10.5294 59.8516 12.3079 62.3663 14.1299C60.8311 15.2483 59.3428 16.3326 57.8215 17.4411Z" fill="#BAD4EA"/>
<path d="M43.8182 15.2415C44.5447 15.7264 45.2404 16.184 45.9238 16.6593C46.0489 16.7463 46.2053 16.9024 46.2095 17.031C46.2356 17.8401 46.2227 18.6504 46.2227 19.5725C43.6924 17.7333 41.2506 15.9584 38.7422 14.1352C41.2295 12.3298 43.685 10.5475 46.2231 8.70532C46.2231 9.6089 46.2395 10.4184 46.2075 11.2259C46.2019 11.3661 46.0138 11.5307 45.8718 11.6287C44.7984 12.3689 43.715 13.0947 42.6359 13.8268C42.4999 13.919 42.3706 14.0211 42.2056 14.1426C42.762 14.5228 43.2725 14.8716 43.8182 15.2415Z" fill="#BBD5EB"/>
</svg>

